<?xml version="1.0" encoding="utf-8"?>
<!-- Generator: Adobe Illustrator 26.5.0, SVG Export Plug-In . SVG Version: 6.00 Build 0)  -->
<svg version="1.1" xmlns="http://www.w3.org/2000/svg" xmlns:xlink="http://www.w3.org/1999/xlink" x="0px" y="0px"
	 viewBox="0 0 64 64" style="enable-background:new 0 0 64 64;" xml:space="preserve">
<style type="text/css">
	.st0{display:none;}
	.st1{display:inline;}
	.st2{fill:#111111;}
	.st3{fill:#FFFFFF;}
	.st4{fill:#4E73DF;}
</style>
<g id="Camada_1" class="st0">
	<g class="st1">
		<path d="M19.11,29.12c-0.04-0.63-0.08-1.13-0.13-1.51c0.33,0.15,0.63,0.25,0.88,0.31c0.26,0.06,0.49,0.09,0.68,0.09
			c0.26,0,0.46-0.04,0.61-0.11c0.15-0.08,0.23-0.19,0.23-0.33c0-0.05-0.01-0.1-0.02-0.14c-0.01-0.05-0.04-0.1-0.08-0.15
			c-0.04-0.06-0.1-0.12-0.18-0.19l-0.83-0.73c-0.2-0.17-0.33-0.28-0.41-0.36c-0.16-0.15-0.28-0.29-0.37-0.42
			c-0.09-0.13-0.15-0.26-0.19-0.4c-0.04-0.13-0.06-0.28-0.06-0.43c0-0.18,0.03-0.36,0.1-0.53c0.06-0.17,0.16-0.33,0.29-0.48
			c0.13-0.15,0.29-0.28,0.5-0.39c0.21-0.11,0.43-0.18,0.67-0.22c0.24-0.04,0.49-0.06,0.74-0.06c0.5,0,1.04,0.06,1.63,0.17
			c0.01,0.2,0.02,0.39,0.03,0.56c0.01,0.17,0.04,0.47,0.08,0.89c-0.27-0.11-0.52-0.19-0.74-0.23c-0.22-0.04-0.42-0.06-0.58-0.06
			c-0.23,0-0.42,0.04-0.57,0.13c-0.15,0.09-0.23,0.19-0.23,0.32c0,0.06,0.01,0.12,0.04,0.17c0.02,0.06,0.07,0.12,0.13,0.2
			c0.06,0.08,0.15,0.16,0.26,0.25c0.11,0.09,0.27,0.22,0.5,0.4l0.32,0.25c0.09,0.08,0.2,0.17,0.31,0.28
			c0.11,0.11,0.2,0.22,0.28,0.32c0.08,0.11,0.14,0.2,0.18,0.29c0.04,0.09,0.07,0.18,0.1,0.27c0.02,0.09,0.03,0.19,0.03,0.29
			c0,0.27-0.06,0.52-0.19,0.76c-0.13,0.24-0.31,0.44-0.54,0.59c-0.23,0.15-0.49,0.26-0.77,0.33c-0.28,0.06-0.57,0.09-0.88,0.09
			C20.44,29.33,19.84,29.26,19.11,29.12z"/>
		<path d="M25.52,29.21c0.15-1.43,0.23-3.01,0.26-4.74l-1.88,0.05l0.02-0.49c0.01-0.26,0.02-0.55,0.03-0.86
			c0.84,0.01,1.81,0.01,2.93,0.01l1.09,0h1.06l0.58,0l-0.03,0.43c-0.01,0.23-0.02,0.42-0.02,0.58c0,0.15-0.01,0.27-0.01,0.34
			c-0.63-0.03-1.15-0.05-1.56-0.05h-0.31c-0.04,0.52-0.08,1-0.1,1.44c-0.03,0.63-0.06,1.25-0.08,1.84c-0.02,0.6-0.03,1.08-0.03,1.45
			c-0.48-0.01-0.8-0.01-0.94-0.01C26.41,29.2,26.07,29.21,25.52,29.21z"/>
		<path d="M30.19,23.17c0.46,0.01,0.78,0.01,0.97,0.01c0.24,0,0.55,0,0.94-0.01l-0.13,1.88c-0.03,0.35-0.05,0.69-0.06,1
			c-0.01,0.31-0.02,0.52-0.02,0.64c0,0.22,0.02,0.41,0.05,0.56c0.03,0.15,0.09,0.28,0.18,0.38c0.09,0.1,0.2,0.18,0.36,0.24
			c0.15,0.05,0.31,0.08,0.48,0.08c0.14,0,0.27-0.02,0.4-0.06c0.1-0.03,0.18-0.08,0.26-0.13c0.07-0.05,0.13-0.11,0.18-0.18
			c0.06-0.08,0.12-0.19,0.16-0.32c0.05-0.12,0.08-0.27,0.11-0.46c0.03-0.19,0.06-0.63,0.11-1.32c0.04-0.58,0.07-1.12,0.09-1.6
			c0.02-0.47,0.03-0.71,0.05-0.71c0.45,0,0.8,0,1.05,0h0.9l-0.22,3.14c0,0.06,0,0.11,0,0.15c-0.01,0.61-0.05,1.05-0.11,1.3
			c-0.06,0.25-0.17,0.47-0.32,0.66c-0.15,0.19-0.36,0.35-0.65,0.5c-0.28,0.15-0.61,0.25-0.97,0.32c-0.36,0.06-0.72,0.09-1.09,0.09
			c-0.33,0-0.65-0.02-0.96-0.07c-0.28-0.05-0.54-0.12-0.77-0.21c-0.23-0.09-0.43-0.2-0.59-0.32c-0.15-0.11-0.27-0.23-0.35-0.34
			c-0.08-0.12-0.15-0.26-0.19-0.42c-0.05-0.18-0.08-0.38-0.08-0.59c0-0.07,0-0.18,0.01-0.32c0.01-0.14,0.02-0.35,0.04-0.62
			l0.06-0.71c0.01-0.19,0.03-0.46,0.05-0.82L30.19,23.17z"/>
		<path d="M36.98,29.21c0.07-0.67,0.11-1.21,0.13-1.62c0.04-0.6,0.07-1.38,0.11-2.34c0.03-0.73,0.04-1.26,0.04-1.57v-0.52
			c0.35,0.01,0.64,0.01,0.89,0.01c0.24,0,0.56-0.01,0.95-0.02c0.39-0.01,0.76-0.02,1.11-0.02c0.4,0,0.74,0.02,1.04,0.07
			s0.58,0.14,0.83,0.29c0.26,0.15,0.47,0.34,0.65,0.58c0.17,0.24,0.31,0.52,0.4,0.84c0.09,0.32,0.14,0.65,0.14,0.99
			c0,0.33-0.04,0.65-0.11,0.96c-0.07,0.31-0.17,0.59-0.3,0.83c-0.13,0.25-0.27,0.46-0.44,0.64c-0.17,0.18-0.36,0.33-0.58,0.46
			c-0.16,0.09-0.33,0.17-0.49,0.22c-0.17,0.05-0.39,0.1-0.68,0.13c-0.32,0.04-0.68,0.05-1.08,0.05L37.8,29.2
			C37.63,29.2,37.36,29.2,36.98,29.21z M38.89,27.88c0.16,0.01,0.33,0.02,0.51,0.02c0.3,0,0.57-0.03,0.8-0.08
			c0.24-0.05,0.44-0.17,0.62-0.34c0.18-0.17,0.31-0.4,0.4-0.67c0.09-0.27,0.13-0.55,0.13-0.84c0-0.35-0.06-0.65-0.19-0.89
			c-0.13-0.24-0.3-0.41-0.51-0.5c-0.21-0.09-0.5-0.14-0.86-0.14c-0.21,0-0.46,0.01-0.75,0.03L38.89,27.88z"/>
		<path d="M45.26,29.21c0.03-0.24,0.06-0.64,0.11-1.22c0.04-0.57,0.06-0.98,0.06-1.21l-2.03-3.61c0.45,0.01,0.81,0.01,1.1,0.01
			c0.28,0,0.61,0,1-0.01c0.12,0.3,0.28,0.65,0.48,1.06c0.2,0.41,0.37,0.77,0.49,1.1c0.34-0.6,0.61-1.07,0.82-1.4
			c0.21-0.33,0.35-0.58,0.44-0.75c0.38,0.01,0.74,0.01,1.08,0.01c0.18,0,0.52,0,1-0.01l-1.94,2.86c-0.39,0.57-0.58,0.87-0.58,0.9
			l0,0.04v0.04l0,0.04l-0.03,0.67c-0.02,0.45-0.04,0.94-0.05,1.47c-0.42-0.01-0.74-0.01-0.96-0.01C46,29.2,45.67,29.21,45.26,29.21z
			"/>
	</g>
	<g class="st1">
		<path d="M28.02,31.88l2.54,5.32l1.1-5.32h0.64l-1.34,6.34h-0.62l-2.6-5.43l-1.12,5.43h-0.64l1.34-6.34H28.02z"/>
		<path d="M35.02,33.72c1.13,0,1.91,0.85,1.91,2.07c0,1.39-1.05,2.53-2.33,2.53c-1.11,0-1.9-0.86-1.9-2.07
			C32.7,34.85,33.74,33.72,35.02,33.72z M36.28,35.79c0-0.88-0.52-1.49-1.29-1.49c-0.92,0-1.65,0.87-1.65,1.94
			c0,0.88,0.53,1.49,1.3,1.49C35.55,37.73,36.28,36.87,36.28,35.79z"/>
		<path d="M38.23,38.22L38,33.8h0.62l0.14,3.53l1.79-3.53h0.58l0.28,3.53l1.65-3.53h0.64l-2.15,4.42h-0.63l-0.26-3.56l-1.79,3.56
			H38.23z"/>
	</g>
	<g class="st1">
		<path class="st2" d="M15,12.49c-0.18,0-0.35-0.06-0.5-0.18L8.46,7.17C8.14,6.89,8.1,6.41,8.37,6.09C8.65,5.76,9.13,5.72,9.45,6
			l6.04,5.14c0.32,0.27,0.36,0.76,0.09,1.08C15.43,12.39,15.22,12.49,15,12.49z"/>
	</g>
	<g class="st1">
		<path class="st2" d="M11.46,18.66c-0.03,0-0.05,0-0.08,0l-4.69-0.48C6.27,18.14,5.96,17.76,6,17.34c0.04-0.42,0.42-0.73,0.84-0.69
			l4.69,0.48c0.42,0.04,0.73,0.42,0.69,0.84C12.18,18.37,11.85,18.66,11.46,18.66z"/>
	</g>
	<g class="st1">
		<path class="st2" d="M20.47,8.35c-0.35,0-0.67-0.24-0.75-0.6l-1.01-4.51c-0.09-0.41,0.17-0.82,0.58-0.92
			c0.41-0.09,0.82,0.17,0.92,0.58l1.01,4.51c0.09,0.41-0.17,0.82-0.58,0.92C20.58,8.34,20.52,8.35,20.47,8.35z"/>
	</g>
	<g class="st1">
		<path class="st2" d="M21.87,47.35c-0.16,0-0.33-0.05-0.47-0.15c-6.19-4.25-9.88-11.26-9.88-18.76c0-12.54,10.2-22.74,22.74-22.74
			S57,15.91,57,28.45c0,3.35-0.71,6.57-2.11,9.58c-0.19,0.42-0.69,0.6-1.11,0.41c-0.42-0.19-0.6-0.69-0.41-1.11
			c1.3-2.79,1.95-5.77,1.95-8.87c0-11.62-9.45-21.07-21.07-21.07c-11.62,0-21.07,9.45-21.07,21.07c0,6.94,3.42,13.44,9.15,17.38
			c0.38,0.26,0.48,0.78,0.22,1.16C22.4,47.22,22.14,47.35,21.87,47.35z"/>
	</g>
	<g class="st1">
		<path class="st2" d="M40.44,55.04H27.13c-0.9,0-1.63-0.73-1.63-1.63v-2.33c0-0.9,0.73-1.63,1.63-1.63h13.31
			c0.9,0,1.63,0.73,1.63,1.63v2.33C42.07,54.32,41.34,55.04,40.44,55.04z M27.13,50.72c-0.2,0-0.37,0.17-0.37,0.37v2.33
			c0,0.2,0.17,0.37,0.37,0.37h13.31c0.2,0,0.37-0.17,0.37-0.37v-2.33c0-0.2-0.17-0.37-0.37-0.37H27.13z"/>
	</g>
	<g class="st1">
		<path class="st2" d="M40.44,61.74H27.13c-0.9,0-1.63-0.73-1.63-1.63v-2.33c0-0.9,0.73-1.63,1.63-1.63h13.31
			c0.9,0,1.63,0.73,1.63,1.63v2.33C42.07,61.01,41.34,61.74,40.44,61.74z M27.13,57.42c-0.2,0-0.37,0.17-0.37,0.37v2.33
			c0,0.2,0.17,0.37,0.37,0.37h13.31c0.2,0,0.37-0.17,0.37-0.37v-2.33c0-0.2-0.17-0.37-0.37-0.37H27.13z"/>
	</g>
	<g class="st1">
		<circle class="st2" cx="24.14" cy="48.77" r="1.05"/>
	</g>
</g>
<g id="Camada_2">
	<path class="st3" d="M36.49,56.75c7.8-4.81,24.32-17.09,24.5-35.02c0.09-8.25-6.58-15.08-14.83-15.01
		c-6.28,0.06-11.62,4.05-13.66,9.63c-2.05-5.58-7.39-9.57-13.66-9.63C10.58,6.65,3.91,13.48,4,21.73
		c0.19,17.93,16.7,30.22,24.5,35.02C30.95,58.26,34.05,58.26,36.49,56.75z"/>
	<g>
		<path class="st4" d="M4.03,21.62"/>
		<path class="st4" d="M5.96,32.13l14.17-0.2l2.23-7.48c0.1-0.34,0.43-0.56,0.78-0.52c0.35,0.04,0.62,0.33,0.65,0.68l0.61,9.69
			l0.87-3.77c0.09-0.38,0.45-0.62,0.83-0.56l3.52,0.59l1.89-6.04c0.1-0.34,0.43-0.55,0.78-0.51c0.35,0.04,0.62,0.33,0.64,0.68
			l0.63,9.28l0.69-3.41c0.08-0.37,0.43-0.63,0.81-0.58l3.65,0.46l1.39-6.08c0.08-0.36,0.41-0.6,0.77-0.57
			c0.36,0.03,0.65,0.32,0.67,0.69l0.52,9.5l0.43-1.86c0.08-0.33,0.37-0.57,0.71-0.57c0,0,0,0,0.01,0l15.99,0.14l-0.56,1.46L43.78,33
			l-1.46,6.35c-0.08,0.35-0.41,0.6-0.77,0.56c-0.36-0.03-0.65-0.32-0.67-0.69l-0.51-9.49l-0.38,1.65c-0.08,0.37-0.43,0.61-0.8,0.56
			l-3.63-0.45l-1.63,8.06c-0.07,0.34-0.37,0.59-0.72,0.59c-0.02,0-0.03,0-0.05,0c-0.36-0.02-0.66-0.31-0.68-0.68l-0.73-10.79
			l-0.91,2.93c-0.11,0.35-0.46,0.56-0.82,0.5l-3.47-0.58l-1.84,7.98c-0.08,0.35-0.41,0.59-0.77,0.56c-0.36-0.03-0.65-0.32-0.67-0.68
			l-0.67-10.59l-1.21,4.06c-0.09,0.31-0.37,0.52-0.69,0.52l-14.15,0.2C6.54,33.58,5.96,32.16,5.96,32.13z"/>
		<path class="st4" d="M60.96,21.57"/>
	</g>
</g>
<g id="Camada_3" class="st0">
	<g class="st1">
		<path d="M8.79,47.6c-0.05-0.11-0.12-0.22-0.22-0.35C8.47,47.12,8.36,47,8.23,46.87c-0.13-0.13-0.25-0.24-0.36-0.33l-0.38-0.3
			c-0.27-0.21-0.47-0.37-0.59-0.48c-0.13-0.11-0.23-0.2-0.3-0.29c-0.08-0.09-0.13-0.17-0.16-0.23c-0.03-0.07-0.04-0.13-0.04-0.2
			c0-0.15,0.09-0.28,0.27-0.38c0.18-0.1,0.41-0.15,0.68-0.15c0.19,0,0.42,0.03,0.69,0.08c0.27,0.05,0.56,0.14,0.88,0.27
			c-0.05-0.5-0.09-0.86-0.1-1.06c-0.01-0.2-0.03-0.42-0.04-0.66c-0.7-0.14-1.34-0.2-1.93-0.2c-0.3,0-0.59,0.02-0.88,0.07
			c-0.28,0.05-0.55,0.14-0.8,0.27c-0.25,0.13-0.45,0.28-0.6,0.46c-0.15,0.18-0.26,0.37-0.34,0.58c-0.08,0.2-0.11,0.41-0.11,0.63
			c0,0.18,0.02,0.35,0.07,0.51c0.05,0.16,0.12,0.32,0.23,0.47c0.1,0.15,0.25,0.32,0.43,0.5c0.09,0.09,0.25,0.23,0.48,0.43l0.99,0.86
			c0.09,0.08,0.16,0.15,0.21,0.22c0.05,0.07,0.08,0.13,0.1,0.18s0.03,0.11,0.03,0.17c0,0.18-0.09,0.31-0.27,0.4
			c-0.18,0.09-0.42,0.13-0.73,0.13c-0.23,0-0.5-0.03-0.81-0.1C4.55,48.62,4.2,48.5,3.8,48.32c0.06,0.45,0.11,1.05,0.16,1.79
			c0.86,0.16,1.58,0.25,2.15,0.25c0.37,0,0.72-0.04,1.05-0.11c0.33-0.07,0.63-0.2,0.91-0.39c0.28-0.18,0.49-0.42,0.64-0.7
			c0.15-0.29,0.23-0.59,0.23-0.9c0-0.12-0.01-0.24-0.04-0.34C8.87,47.81,8.84,47.7,8.79,47.6z"/>
		<path d="M14.48,43.06l-1.3,0.01c-1.32,0-2.48,0-3.48-0.01c-0.01,0.37-0.02,0.71-0.03,1.02l-0.03,0.58l2.24-0.06
			c-0.03,2.05-0.14,3.92-0.31,5.62c0.65-0.01,1.06-0.01,1.21-0.01c0.17,0,0.54,0,1.11,0.01c0-0.44,0.01-1.01,0.03-1.72
			c0.02-0.71,0.05-1.44,0.09-2.19c0.03-0.52,0.07-1.1,0.12-1.71h0.37c0.49,0,1.1,0.02,1.85,0.06c0-0.09,0-0.23,0.01-0.41
			c0.01-0.18,0.01-0.41,0.03-0.68l0.03-0.51l-0.68,0.01H14.48z"/>
		<path d="M22,43.05c-0.02,0-0.04,0.28-0.06,0.84c-0.02,0.58-0.06,1.21-0.11,1.9c-0.05,0.81-0.09,1.33-0.13,1.56
			c-0.03,0.23-0.07,0.41-0.13,0.55c-0.06,0.15-0.12,0.28-0.19,0.38c-0.06,0.08-0.13,0.16-0.21,0.22c-0.09,0.07-0.19,0.12-0.31,0.16
			c-0.15,0.05-0.3,0.07-0.47,0.07c-0.2,0-0.38-0.03-0.56-0.09c-0.18-0.06-0.32-0.16-0.42-0.28c-0.1-0.12-0.17-0.28-0.21-0.45
			c-0.04-0.18-0.06-0.4-0.06-0.67c0-0.14,0.01-0.39,0.02-0.76c0.02-0.37,0.04-0.76,0.07-1.18l0.16-2.23
			c-0.47,0.01-0.84,0.01-1.12,0.01c-0.22,0-0.61,0-1.16-0.01l-0.1,2.08c-0.02,0.43-0.04,0.75-0.06,0.97l-0.07,0.84
			c-0.02,0.32-0.04,0.56-0.05,0.73s-0.01,0.3-0.01,0.38c0,0.25,0.03,0.48,0.09,0.7c0.06,0.19,0.13,0.36,0.23,0.5
			c0.1,0.14,0.24,0.27,0.42,0.41c0.2,0.14,0.43,0.27,0.7,0.38c0.27,0.11,0.57,0.19,0.91,0.24c0.36,0.06,0.74,0.08,1.14,0.08
			c0.44,0,0.87-0.04,1.3-0.11c0.43-0.07,0.81-0.2,1.15-0.38c0.34-0.18,0.59-0.38,0.77-0.6c0.18-0.22,0.3-0.48,0.38-0.78
			c0.08-0.3,0.12-0.81,0.13-1.54c0-0.05,0-0.1,0.01-0.17l0.26-3.73h-1.07C22.94,43.05,22.53,43.05,22,43.05z"/>
		<path d="M32,44.14c-0.21-0.28-0.46-0.51-0.77-0.69c-0.31-0.18-0.64-0.29-0.99-0.35c-0.35-0.06-0.77-0.08-1.23-0.08
			c-0.41,0-0.85,0.01-1.31,0.02c-0.47,0.02-0.84,0.02-1.13,0.02c-0.3,0-0.65-0.01-1.06-0.02v0.61c0,0.37-0.02,1-0.05,1.87
			c-0.04,1.13-0.08,2.06-0.13,2.77c-0.03,0.48-0.08,1.12-0.16,1.92c0.45-0.01,0.77-0.02,0.97-0.02l2.12,0.02
			c0.48,0,0.91-0.02,1.29-0.06c0.34-0.04,0.61-0.09,0.8-0.15c0.2-0.06,0.39-0.15,0.58-0.26c0.26-0.15,0.49-0.33,0.69-0.54
			c0.2-0.21,0.38-0.46,0.53-0.76c0.15-0.29,0.27-0.62,0.35-0.99c0.08-0.37,0.13-0.75,0.13-1.14c0-0.4-0.05-0.79-0.16-1.17
			C32.37,44.75,32.21,44.42,32,44.14z M30.21,47.37c-0.1,0.32-0.26,0.59-0.47,0.8c-0.21,0.21-0.46,0.34-0.74,0.4
			c-0.28,0.06-0.6,0.09-0.96,0.09c-0.21,0-0.41-0.01-0.6-0.03l0.18-4.05c0.34-0.02,0.64-0.03,0.89-0.03c0.43,0,0.77,0.06,1.02,0.17
			c0.25,0.11,0.45,0.31,0.6,0.6c0.15,0.29,0.23,0.64,0.23,1.05C30.37,46.72,30.31,47.05,30.21,47.37z"/>
		<path d="M39.22,43.06c-0.41,0-0.84,0-1.28-0.01c-0.11,0.2-0.28,0.49-0.53,0.89c-0.25,0.4-0.57,0.95-0.97,1.66
			c-0.15-0.38-0.35-0.81-0.59-1.3c-0.24-0.48-0.43-0.9-0.57-1.25c-0.46,0.01-0.85,0.01-1.18,0.01c-0.34,0-0.78,0-1.31-0.01
			l2.41,4.29c0,0.28-0.02,0.76-0.07,1.44c-0.05,0.68-0.09,1.16-0.13,1.44c0.49-0.01,0.88-0.01,1.16-0.01c0.27,0,0.65,0,1.15,0.01
			c0.01-0.64,0.03-1.22,0.06-1.75l0.04-0.8l0.01-0.05v-0.05l0.01-0.05c0-0.03,0.23-0.39,0.69-1.07l2.31-3.4
			C39.83,43.06,39.44,43.06,39.22,43.06z"/>
		<polygon points="45.4,49.2 42.39,42.88 41.55,42.88 39.96,50.41 40.72,50.41 42.05,43.97 45.14,50.41 45.87,50.41 47.46,42.88 
			46.7,42.88 		"/>
		<path d="M50.69,45.07c-1.52,0-2.75,1.34-2.75,3c0,1.43,0.95,2.45,2.26,2.45c1.52,0,2.77-1.36,2.77-3
			C52.96,46.08,52.04,45.07,50.69,45.07z M50.24,49.82c-0.91,0-1.54-0.72-1.54-1.76c0-1.27,0.87-2.3,1.96-2.3
			c0.91,0,1.53,0.72,1.53,1.76C52.19,48.8,51.33,49.82,50.24,49.82z"/>
		<polygon points="60.24,45.16 58.28,49.36 57.94,45.16 57.26,45.16 55.14,49.36 54.96,45.16 54.23,45.16 54.5,50.41 55.25,50.41 
			57.39,46.18 57.7,50.41 58.45,50.41 61,45.16 		"/>
		<path d="M5.13,36.7c0.14,0.09,0.3,0.14,0.47,0.14c0.07,0,0.14-0.01,0.21-0.03l10.54-2.75c0.23-0.06,0.42-0.21,0.53-0.42l7.9-15.07
			c0.1-0.12,0.18-0.24,0.24-0.36c0.04-0.09,0.08-0.18,0.1-0.28l0.01-0.02c0.13-0.24,0.12-0.51,0.02-0.74
			c-0.1-0.61-0.51-1.38-1.5-2.31c-1.1-1.04-2.69-2.08-4.5-2.93c-3.48-1.64-7.65-2.52-8.59-0.54c-0.31,0.65-0.32,1.76,1.37,3.36
			c1.1,1.04,2.69,2.08,4.5,2.93c1.81,0.85,3.62,1.43,5.12,1.62c0.34,0.04,0.65,0.06,0.92,0.07l-6.91,13.18l-9.26,2.42l-1.04-8.18
			l8.14,4.91c0.4,0.24,0.91,0.11,1.15-0.29c0.24-0.4,0.11-0.91-0.29-1.15L5.26,24.8l3.23-6.45c0.21-0.42,0.04-0.92-0.38-1.13
			c-0.41-0.21-0.92-0.04-1.13,0.38l-3.36,6.72c-0.06,0.11-0.08,0.23-0.09,0.35c-0.12,0.17-0.17,0.38-0.15,0.59l1.38,10.85
			C4.8,36.35,4.93,36.56,5.13,36.7z M17.16,16.15c-3.68-1.74-5.12-3.61-5.06-4.05c0.31-0.32,2.67-0.4,6.35,1.34
			c3.49,1.65,4.97,3.42,5.06,3.97l-0.07,0.13C22.92,17.81,20.63,17.79,17.16,16.15z"/>
		<path d="M26.08,38.91c0.5,0.01,0.92,0.37,1.41,0.5c0.28,0.07,0.55,0.07,0.81,0.02c-0.55-0.08-0.93-0.34-1.33-0.71
			c-0.81-0.7-2.09-0.64-2.95-0.06c-0.41,0.25-0.99,0.25-1.42,0.08c-0.48-0.25-0.83-0.66-1.44-0.79c-0.7-0.17-1.42-0.12-2.05,0.21
			c-0.31,0.17-0.5,0.31-0.65,0.38c-0.21,0.1-0.49,0.12-0.74,0.1c-0.29-0.03-0.4-0.09-0.71-0.3c-0.27-0.19-0.77-0.46-1.19-0.51
			c-0.25-0.04-0.53-0.05-0.78-0.03c-0.34,0.02-0.73,0.12-1.05,0.29c-0.32,0.17-0.54,0.35-0.69,0.44c-0.15,0.09-0.27,0.14-0.46,0.17
			c-0.41,0.04-0.67,0.03-1.05-0.2c-0.8-0.56-1.91-0.69-2.8-0.23c-0.25,0.13-0.48,0.32-0.69,0.48c-0.54,0.4-1.27,0.45-1.89,0.16
			c-0.46-0.25-1.03-0.46-1.57-0.34c0.55,0.08,0.93,0.34,1.33,0.71c0.44,0.39,1.08,0.55,1.68,0.51c0.45-0.01,0.91-0.23,1.27-0.45
			c0.64-0.36,1.41-0.21,1.94,0.26c0.47,0.39,1.29,0.61,1.93,0.54c0.43-0.02,0.88-0.19,1.25-0.42c0.13-0.08,0.33-0.21,0.44-0.26
			c0.18-0.09,0.39-0.11,0.6-0.11c0.35,0.01,0.51,0.07,0.85,0.31c0.8,0.61,2.08,0.75,3.01,0.25c0.53-0.28,0.65-0.52,1.14-0.61
			c0.18-0.02,0.39-0.03,0.55,0c0.44,0.07,0.88,0.5,1.36,0.61c0.79,0.22,1.69,0.08,2.34-0.43c0,0,0.3-0.23,0.3-0.23
			C25.2,38.97,25.64,38.89,26.08,38.91z"/>
	</g>
</g>
<g id="Camada_4" class="st0">
	<g class="st1">
		<path d="M5.29,33.85c0.3-0.07,0.57-0.18,0.82-0.35c0.25-0.16,0.44-0.37,0.57-0.63c0.13-0.26,0.2-0.52,0.2-0.81
			c0-0.11-0.01-0.21-0.03-0.31c-0.02-0.1-0.06-0.19-0.1-0.28c-0.05-0.09-0.11-0.2-0.2-0.31c-0.08-0.11-0.18-0.23-0.3-0.34
			c-0.12-0.12-0.22-0.21-0.32-0.3l-0.34-0.27c-0.24-0.19-0.42-0.33-0.53-0.43c-0.11-0.1-0.2-0.18-0.27-0.26
			c-0.07-0.08-0.12-0.15-0.14-0.21c-0.03-0.06-0.04-0.12-0.04-0.18c0-0.13,0.08-0.25,0.24-0.34c0.16-0.09,0.36-0.14,0.61-0.14
			c0.17,0,0.38,0.02,0.62,0.07c0.24,0.05,0.5,0.13,0.79,0.24c-0.05-0.45-0.08-0.77-0.09-0.95c-0.01-0.18-0.02-0.38-0.03-0.59
			c-0.62-0.12-1.2-0.18-1.73-0.18c-0.27,0-0.53,0.02-0.79,0.06c-0.25,0.04-0.49,0.12-0.71,0.24c-0.22,0.12-0.4,0.25-0.54,0.41
			c-0.13,0.16-0.24,0.33-0.3,0.51c-0.07,0.18-0.1,0.37-0.1,0.56c0,0.16,0.02,0.31,0.06,0.45c0.04,0.14,0.11,0.28,0.2,0.42
			c0.09,0.14,0.22,0.29,0.39,0.45c0.08,0.08,0.23,0.21,0.43,0.38l0.89,0.77c0.08,0.07,0.14,0.14,0.19,0.2
			c0.04,0.06,0.07,0.12,0.09,0.16c0.02,0.05,0.02,0.1,0.02,0.15c0,0.16-0.08,0.28-0.24,0.35c-0.16,0.08-0.38,0.12-0.65,0.12
			c-0.21,0-0.45-0.03-0.72-0.09c-0.27-0.06-0.59-0.17-0.94-0.33c0.05,0.4,0.1,0.94,0.14,1.6c0.77,0.15,1.42,0.22,1.92,0.22
			C4.68,33.95,4.99,33.92,5.29,33.85z"/>
		<path d="M10.32,33.82c0.15,0,0.48,0,1,0.01c0-0.39,0.01-0.9,0.03-1.54c0.02-0.63,0.05-1.29,0.08-1.96
			c0.03-0.47,0.06-0.98,0.11-1.53h0.33c0.44,0,0.99,0.02,1.66,0.05c0-0.08,0-0.2,0.01-0.37c0-0.16,0.01-0.37,0.03-0.61l0.03-0.46
			l-0.61,0h-1.13l-1.16,0c-1.18,0-2.22,0-3.11-0.01c-0.01,0.33-0.02,0.64-0.03,0.92l-0.02,0.52l2-0.05
			c-0.03,1.83-0.12,3.51-0.28,5.03C9.82,33.82,10.18,33.82,10.32,33.82z"/>
		<path d="M16.1,29.41l0.14-2c-0.42,0.01-0.75,0.01-1,0.01c-0.2,0-0.55,0-1.03-0.01l-0.09,1.86c-0.02,0.38-0.04,0.67-0.05,0.87
			L14,30.89c-0.02,0.29-0.04,0.5-0.04,0.66c-0.01,0.15-0.01,0.27-0.01,0.34c0,0.22,0.03,0.43,0.08,0.63
			c0.05,0.17,0.12,0.32,0.21,0.44c0.09,0.12,0.21,0.25,0.38,0.36c0.18,0.13,0.39,0.24,0.63,0.34c0.24,0.1,0.51,0.17,0.81,0.22
			c0.33,0.05,0.66,0.08,1.02,0.08c0.39,0,0.78-0.03,1.16-0.1c0.38-0.07,0.72-0.18,1.03-0.34c0.3-0.16,0.53-0.34,0.69-0.53
			c0.16-0.2,0.27-0.43,0.34-0.7c0.07-0.27,0.11-0.73,0.12-1.38c0-0.04,0-0.09,0-0.16l0.23-3.34h-0.95c-0.27,0-0.65,0-1.12,0
			c-0.02,0-0.03,0.25-0.05,0.75c-0.02,0.51-0.05,1.08-0.09,1.7c-0.05,0.73-0.08,1.19-0.11,1.4c-0.03,0.2-0.06,0.37-0.11,0.49
			c-0.05,0.13-0.11,0.25-0.17,0.34c-0.05,0.07-0.12,0.14-0.19,0.2c-0.08,0.06-0.17,0.11-0.28,0.14c-0.13,0.04-0.27,0.06-0.42,0.06
			c-0.18,0-0.34-0.03-0.5-0.08c-0.16-0.06-0.29-0.14-0.38-0.25c-0.09-0.11-0.15-0.25-0.19-0.41c-0.03-0.16-0.05-0.36-0.05-0.6
			c0-0.13,0.01-0.35,0.02-0.68C16.05,30.14,16.07,29.79,16.1,29.41z"/>
		<path d="M26.84,27.77c-0.27-0.16-0.57-0.26-0.89-0.31c-0.32-0.05-0.68-0.08-1.1-0.08c-0.37,0-0.76,0.01-1.17,0.02
			c-0.42,0.01-0.75,0.02-1.01,0.02c-0.27,0-0.58,0-0.95-0.01v0.55c0,0.34-0.01,0.89-0.04,1.67c-0.04,1.02-0.08,1.84-0.11,2.48
			c-0.03,0.43-0.07,1-0.14,1.72c0.4-0.01,0.69-0.01,0.87-0.01l1.9,0.01c0.43,0,0.81-0.02,1.15-0.06c0.3-0.03,0.54-0.08,0.72-0.14
			c0.18-0.06,0.35-0.13,0.52-0.24c0.23-0.13,0.44-0.3,0.62-0.49c0.18-0.19,0.34-0.42,0.47-0.68c0.13-0.26,0.24-0.56,0.31-0.89
			c0.08-0.33,0.11-0.67,0.11-1.02c0-0.36-0.05-0.71-0.15-1.05c-0.1-0.34-0.24-0.64-0.42-0.89C27.34,28.13,27.11,27.93,26.84,27.77z
			 M25.92,31.28c-0.09,0.29-0.23,0.53-0.42,0.71c-0.19,0.18-0.41,0.31-0.66,0.36c-0.25,0.06-0.54,0.08-0.86,0.08
			c-0.19,0-0.37-0.01-0.54-0.02l0.16-3.62c0.31-0.02,0.57-0.03,0.8-0.03c0.39,0,0.69,0.05,0.91,0.15c0.22,0.1,0.4,0.28,0.54,0.53
			c0.13,0.26,0.2,0.57,0.2,0.94C26.06,30.69,26.01,30.99,25.92,31.28z"/>
		<path d="M32.27,33.83c0.01-0.57,0.03-1.09,0.05-1.57l0.03-0.71l0-0.05v-0.05l0-0.05c0-0.03,0.21-0.35,0.62-0.95l2.06-3.04
			c-0.51,0.01-0.86,0.01-1.06,0.01c-0.37,0-0.75,0-1.15-0.01c-0.09,0.18-0.25,0.44-0.47,0.8c-0.22,0.36-0.51,0.85-0.87,1.49
			c-0.13-0.34-0.31-0.73-0.52-1.16c-0.21-0.43-0.38-0.81-0.51-1.12c-0.41,0.01-0.76,0.01-1.06,0.01c-0.31,0-0.7,0-1.17-0.01
			l2.15,3.84c0,0.25-0.02,0.68-0.07,1.29c-0.04,0.61-0.08,1.04-0.11,1.29c0.44-0.01,0.79-0.01,1.03-0.01
			C31.48,33.82,31.83,33.82,32.27,33.83z"/>
		<polygon points="35.24,33.79 35.92,33.79 37.12,28.03 39.88,33.79 40.53,33.79 41.96,27.06 41.28,27.06 40.11,32.71 37.41,27.06 
			36.66,27.06 		"/>
		<path d="M46.88,31.2c0-1.29-0.83-2.19-2.03-2.19c-1.36,0-2.46,1.2-2.46,2.69c0,1.28,0.85,2.19,2.02,2.19
			C45.76,33.89,46.88,32.68,46.88,31.2z M43.07,31.69c0-1.14,0.78-2.06,1.75-2.06c0.82,0,1.37,0.65,1.37,1.58
			c0,1.15-0.77,2.06-1.74,2.06C43.62,33.26,43.07,32.62,43.07,31.69z"/>
		<polygon points="50.84,30.01 51.11,33.79 51.79,33.79 54.07,29.1 53.39,29.1 51.63,32.85 51.34,29.1 50.72,29.1 48.82,32.85 
			48.67,29.1 48.01,29.1 48.26,33.79 48.93,33.79 		"/>
		<path d="M57.82,28.8c-0.49-0.45-0.78-1.09-0.78-1.76v-6.47l0-0.07c-1.13-9.07-6.65-13.16-11.08-15c-3.77-1.57-7.34-1.8-8.75-1.82
			c-0.34-0.01-0.61,0.28-0.6,0.62l0,0c0.01,0.31,0.27,0.56,0.58,0.57c1.31,0.03,4.75,0.25,8.31,1.73c6,2.49,9.48,7.19,10.35,13.97
			c0,0.03,0.01,0.05,0.01,0.08v6.39c0,0.99,0.42,1.95,1.16,2.63c1.47,1.35,2.88,2.95,3.49,3.83c0.21,0.3,0.1,0.73-0.24,0.88
			c-0.19,0.09-0.45,0.18-0.8,0.27c-0.87,0.24-1.48,1.03-1.48,1.94v2.03c0,0.67-0.39,1.42-1.03,1.51c-1.16,0.17-1.25,2.09-1.36,4.75
			c-0.07,1.48-0.13,3.01-0.41,3.84c-0.57,1.72-4.14,1.72-8.65,1.72h-7.91c-0.33,0-0.59,0.27-0.59,0.59s0.27,0.59,0.59,0.59h3.78
			v8.74c0,0.33,0.27,0.59,0.59,0.59h0c0.33,0,0.59-0.27,0.59-0.59v-8.74h2.95c5.18,0,8.93,0,9.77-2.53c0.33-0.98,0.4-2.6,0.47-4.16
			c0.05-1.07,0.11-2.57,0.3-3.3c0.05-0.2,0.2-0.35,0.4-0.41c1.11-0.35,1.7-1.55,1.7-2.61v-2.03c0-0.37,0.25-0.7,0.61-0.8
			c0.55-0.15,2.23-0.6,2.23-1.77C62,32.7,57.86,28.83,57.82,28.8z"/>
		<path d="M11.89,4.76h20.55c0.33,0,0.59-0.27,0.59-0.59s-0.27-0.59-0.59-0.59H11.89c-0.33,0-0.59,0.27-0.59,0.59
			S11.56,4.76,11.89,4.76z"/>
		<path d="M34.37,51.74c0-0.33-0.27-0.59-0.59-0.59h-16.3c-0.33,0-0.59,0.27-0.59,0.59s0.27,0.59,0.59,0.59h16.3
			C34.1,52.33,34.37,52.07,34.37,51.74z"/>
		<path d="M21.58,47.87h3.54c0.33,0,0.59-0.27,0.59-0.59c0-0.33-0.27-0.59-0.59-0.59h-3.54c-0.33,0-0.59,0.27-0.59,0.59
			C20.99,47.61,21.26,47.87,21.58,47.87z"/>
		<path d="M36.69,8.12h-4.25c-0.33,0-0.59,0.27-0.59,0.59s0.27,0.59,0.59,0.59h4.25c0.33,0,0.59-0.27,0.59-0.59
			S37.01,8.12,36.69,8.12z"/>
		<path d="M34.01,14.72c0-0.33-0.27-0.59-0.59-0.59H17.83c-0.33,0-0.59,0.27-0.59,0.59c0,0.33,0.27,0.59,0.59,0.59h15.59
			C33.74,15.31,34.01,15.05,34.01,14.72z"/>
		<path d="M38.03,56.11H27.4c-0.33,0-0.59,0.27-0.59,0.59c0,0.33,0.27,0.59,0.59,0.59h10.63c0.33,0,0.59-0.27,0.59-0.59
			C38.62,56.37,38.35,56.11,38.03,56.11z"/>
		<path d="M20.2,42.28c0-0.33-0.27-0.59-0.59-0.59H3.32c-0.33,0-0.59,0.27-0.59,0.59c0,0.33,0.27,0.59,0.59,0.59h16.3
			C19.94,42.88,20.2,42.61,20.2,42.28z"/>
		<path d="M30.86,38.51c0-0.33-0.27-0.59-0.59-0.59h-7.09c-0.33,0-0.59,0.27-0.59,0.59c0,0.33,0.27,0.59,0.59,0.59h7.09
			C30.6,39.1,30.86,38.84,30.86,38.51z"/>
		<path d="M19.6,21.42c0.33,0,0.59-0.27,0.59-0.59c0-0.33-0.27-0.59-0.59-0.59h-17C2.27,20.23,2,20.5,2,20.82
			c0,0.33,0.27,0.59,0.59,0.59H19.6z"/>
		<path d="M32.57,23.5c0.33,0,0.59-0.27,0.59-0.59s-0.27-0.59-0.59-0.59h-4.25c-0.33,0-0.59,0.27-0.59,0.59S28,23.5,28.32,23.5
			H32.57z"/>
	</g>
</g>
</svg>
